<svg width="109" height="39" viewBox="0 0 109 39" fill="none" xmlns="http://www.w3.org/2000/svg">
<path d="M0 38.76V2.19396L4.63207 0H4.87587V18.3561L20.6005 0H20.8443L23.6723 1.46264L10.5806 16.5035C15.0177 16.5035 18.3576 17.5923 20.6005 19.77C22.7947 21.899 23.8917 24.7836 23.8917 28.424V36.566L19.2597 38.76H19.0159V26.9857C19.0159 24.808 18.4308 23.0447 17.2606 21.6958C15.8141 20.0219 14.0425 19.185 11.9459 19.185C9.81674 19.185 8.04518 20.0219 6.63118 21.6958C5.46097 23.0772 4.87587 24.8405 4.87587 26.9857V36.566L0.243793 38.76H0Z" fill="#BE0000"/>
<path d="M33.1559 2.19396L37.788 0H38.0318V27.7902C38.0318 29.9679 38.6169 31.7312 39.7871 33.0801C41.2336 34.754 43.127 35.5909 45.4675 35.5909C47.8079 35.5909 49.7013 34.754 51.1478 33.0801C52.318 31.7312 52.9032 29.9679 52.9032 27.7902V2.19396L57.5352 0H57.779V26.0838C57.779 29.5941 56.6819 32.4788 54.4878 34.7377C52.1799 37.0942 49.1731 38.2725 45.4675 38.2725C41.8106 38.2725 38.8038 37.0942 36.4471 34.7377C34.253 32.56 33.1559 29.6754 33.1559 26.0838V2.19396Z" fill="#BE0000"/>
<path d="M67.5308 37.7849V2.19396L72.1628 0H72.4066V35.1034H89.1065V35.3472L87.9606 37.7849H67.5308Z" fill="#BE0000"/>
<path d="M93.6898 38.76V3.6566H83.2554V3.41283L84.4012 0.975094H109V1.21887L107.854 3.6566H98.5656V36.566L93.9336 38.76H93.6898Z" fill="#BE0000"/>
</svg>