<svg width="109" height="39" viewBox="0 0 109 39" fill="none" xmlns="http://www.w3.org/2000/svg">
<path d="M0 38.7631V2.19414L4.63207 0H4.87587V18.3576L20.6005 0H20.8443L23.6723 1.46276L10.5806 16.5048C15.0177 16.5048 18.3576 17.5938 20.6005 19.7716C22.7947 21.9008 23.8917 24.7857 23.8917 28.4263V36.569L19.2597 38.7631H19.0159V26.9879C19.0159 24.81 18.4308 23.0466 17.2606 21.6976C15.8141 20.0236 14.0425 19.1865 11.9459 19.1865C9.81674 19.1865 8.04518 20.0236 6.63118 21.6976C5.46097 23.0791 4.87587 24.8425 4.87587 26.9879V36.569L0.243793 38.7631H0Z" fill="#F2B824"/>
<path d="M33.1559 2.19414L37.788 0H38.0318V27.7924C38.0318 29.9703 38.6169 31.7338 39.7871 33.0828C41.2336 34.7568 43.127 35.5938 45.4675 35.5938C47.8079 35.5938 49.7013 34.7568 51.1478 33.0828C52.318 31.7338 52.9032 29.9703 52.9032 27.7924V2.19414L57.5352 0H57.779V26.0859C57.779 29.5965 56.6819 32.4814 54.4878 34.7406C52.1799 37.0972 49.1731 38.2756 45.4675 38.2756C41.8106 38.2756 38.8038 37.0972 36.4471 34.7406C34.253 32.5627 33.1559 29.6778 33.1559 26.0859V2.19414Z" fill="#F2B824"/>
<path d="M67.5308 37.788V2.19414L72.1628 0H72.4066V35.1062H89.1065V35.35L87.9606 37.788H67.5308Z" fill="#F2B824"/>
<path d="M93.6898 38.7631V3.6569H83.2554V3.41311L84.4012 0.975173H109V1.21897L107.854 3.6569H98.5656V36.569L93.9336 38.7631H93.6898Z" fill="#F2B824"/>
</svg>

